<svg xmlns="http://www.w3.org/2000/svg" xmlns:xlink="http://www.w3.org/1999/xlink" contentStyleType="text/css" data-diagram-type="DESCRIPTION" height="464px" preserveAspectRatio="none" style="width:2381px;height:464px;background:#FFFFFF;" version="1.1" viewBox="0 0 2381 464" width="2381px" zoomAndPan="magnify"><defs/><g><!--entity Courier--><g class="entity" data-entity="Courier" data-source-line="1" data-uid="ent0002" id="entity_Courier"><rect fill="#F1F1F1" height="36.2969" rx="2.5" ry="2.5" style="stroke:#181818;stroke-width:0.5;" width="72.8623" x="671.96" y="120.3"/><text fill="#000000" font-family="sans-serif" font-size="14" lengthAdjust="spacing" textLength="52.8623" x="681.96" y="143.2951">&#1050;&#1091;&#1088;&#1100;&#1077;&#1088;</text></g><!--entity Dispatcher--><g class="entity" data-entity="Dispatcher" data-source-line="2" data-uid="ent0003" id="entity_Dispatcher"><rect fill="#F1F1F1" height="36.2969" rx="2.5" ry="2.5" style="stroke:#181818;stroke-width:0.5;" width="99.4268" x="56.68" y="421.89"/><text fill="#000000" font-family="sans-serif" font-size="14" lengthAdjust="spacing" textLength="79.4268" x="66.68" y="444.8851">&#1044;&#1080;&#1089;&#1087;&#1077;&#1090;&#1095;&#1077;&#1088;</text></g><!--entity Admin--><g class="entity" data-entity="Admin" data-source-line="3" data-uid="ent0004" id="entity_Admin"><rect fill="#F1F1F1" height="36.2969" rx="2.5" ry="2.5" style="stroke:#181818;stroke-width:0.5;" width="136.0947" x="967.34" y="120.3"/><text fill="#000000" font-family="sans-serif" font-size="14" lengthAdjust="spacing" textLength="116.0947" x="977.34" y="143.2951">&#1040;&#1076;&#1084;&#1080;&#1085;&#1080;&#1089;&#1090;&#1088;&#1072;&#1090;&#1086;&#1088;</text></g><!--entity Operator--><g class="entity" data-entity="Operator" data-source-line="4" data-uid="ent0005" id="entity_Operator"><rect fill="#F1F1F1" height="36.2969" rx="2.5" ry="2.5" style="stroke:#181818;stroke-width:0.5;" width="91.8594" x="1185.46" y="120.3"/><text fill="#000000" font-family="sans-serif" font-size="14" lengthAdjust="spacing" textLength="71.8594" x="1195.46" y="143.2951">&#1054;&#1087;&#1077;&#1088;&#1072;&#1090;&#1086;&#1088;</text></g><!--entity Shops--><g class="entity" data-entity="Shops" data-source-line="5" data-uid="ent0006" id="entity_Shops"><rect fill="#F1F1F1" height="36.2969" rx="2.5" ry="2.5" style="stroke:#181818;stroke-width:0.5;" width="93.3428" x="1184.72" y="7"/><text fill="#000000" font-family="sans-serif" font-size="14" lengthAdjust="spacing" textLength="73.3428" x="1194.72" y="29.9951">&#1052;&#1072;&#1075;&#1072;&#1079;&#1080;&#1085;&#1099;</text></g><!--entity System--><g class="entity" data-entity="System" data-source-line="7" data-uid="ent0007" id="entity_System"><rect fill="#F1F1F1" height="36.2969" rx="2.5" ry="2.5" style="stroke:#181818;stroke-width:0.5;" width="126.3467" x="872.22" y="278.6"/><text fill="#000000" font-family="sans-serif" font-size="14" lengthAdjust="spacing" textLength="106.3467" x="882.22" y="301.5951">&#1057;&#1048;&#1057;&#1058;&#1045;&#1052;&#1040; DOO</text></g><!--entity Client--><g class="entity" data-entity="Client" data-source-line="9" data-uid="ent0008" id="entity_Client"><rect fill="#F1F1F1" height="36.2969" rx="2.5" ry="2.5" style="stroke:#181818;stroke-width:0.5;" width="73.9082" x="441.44" y="421.89"/><text fill="#000000" font-family="sans-serif" font-size="14" lengthAdjust="spacing" textLength="53.9082" x="451.44" y="444.8851">&#1050;&#1083;&#1080;&#1077;&#1085;&#1090;</text></g><!--entity Owner--><g class="entity" data-entity="Owner" data-source-line="10" data-uid="ent0009" id="entity_Owner"><rect fill="#F1F1F1" height="36.2969" rx="2.5" ry="2.5" style="stroke:#181818;stroke-width:0.5;" width="92.5156" x="802.13" y="421.89"/><text fill="#000000" font-family="sans-serif" font-size="14" lengthAdjust="spacing" textLength="72.5156" x="812.13" y="444.8851">&#1042;&#1083;&#1072;&#1076;&#1077;&#1083;&#1077;&#1094;</text></g><!--entity Accounting--><g class="entity" data-entity="Accounting" data-source-line="11" data-uid="ent0010" id="entity_Accounting"><rect fill="#F1F1F1" height="36.2969" rx="2.5" ry="2.5" style="stroke:#181818;stroke-width:0.5;" width="114.2334" x="1164.27" y="421.89"/><text fill="#000000" font-family="sans-serif" font-size="14" lengthAdjust="spacing" textLength="94.2334" x="1174.27" y="444.8851">&#1041;&#1091;&#1093;&#1075;&#1072;&#1083;&#1090;&#1077;&#1088;&#1080;&#1103;</text></g><!--entity Payments--><g class="entity" data-entity="Payments" data-source-line="12" data-uid="ent0011" id="entity_Payments"><rect fill="#F1F1F1" height="36.2969" rx="2.5" ry="2.5" style="stroke:#181818;stroke-width:0.5;" width="168.4424" x="1457.17" y="421.89"/><text fill="#000000" font-family="sans-serif" font-size="14" lengthAdjust="spacing" textLength="148.4424" x="1467.17" y="444.8851">&#1055;&#1083;&#1072;&#1090;&#1077;&#1078;&#1085;&#1072;&#1103; &#1089;&#1080;&#1089;&#1090;&#1077;&#1084;&#1072;</text></g><!--entity Sanitation--><g class="entity" data-entity="Sanitation" data-source-line="13" data-uid="ent0012" id="entity_Sanitation"><rect fill="#F1F1F1" height="36.2969" rx="2.5" ry="2.5" style="stroke:#181818;stroke-width:0.5;" width="135.4316" x="1746.67" y="421.89"/><text fill="#000000" font-family="sans-serif" font-size="14" lengthAdjust="spacing" textLength="115.4316" x="1756.67" y="444.8851">&#1057;&#1072;&#1085;&#1101;&#1087;&#1080;&#1076;&#1085;&#1072;&#1076;&#1079;&#1086;&#1088;</text></g><!--entity Regulators--><g class="entity" data-entity="Regulators" data-source-line="14" data-uid="ent0013" id="entity_Regulators"><rect fill="#F1F1F1" height="36.2969" rx="2.5" ry="2.5" style="stroke:#181818;stroke-width:0.5;" width="106.7275" x="2045.03" y="421.89"/><text fill="#000000" font-family="sans-serif" font-size="14" lengthAdjust="spacing" textLength="86.7275" x="2055.03" y="444.8851">&#1056;&#1077;&#1075;&#1091;&#1083;&#1103;&#1090;&#1086;&#1088;&#1099;</text></g><!--link Operator to System--><g class="link" data-entity-1="Operator" data-entity-2="System" data-source-line="17" data-uid="lnk14" id="link_Operator_System"><path d="M1229.69,156.83 C1226.33,181.28 1216.51,225.39 1188.39,248.6 C1160.13,271.91 1070.2233,284.1444 1004.9533,290.3244" fill="none" id="Operator-to-System" style="stroke:#181818;stroke-width:1;"/><polygon fill="#181818" points="998.98,290.89,1008.317,294.0238,1003.9577,290.4187,1007.5629,286.0595,998.98,290.89" style="stroke:#181818;stroke-width:1;"/><text fill="#000000" font-family="sans-serif" font-size="13" lengthAdjust="spacing" textLength="90.8794" x="1260.2828" y="214.6669">&#1042;&#1074;&#1086;&#1076; &#1079;&#1072;&#1082;&#1072;&#1079;&#1086;&#1074;</text><text fill="#000000" font-family="sans-serif" font-size="13" lengthAdjust="spacing" textLength="162.665" x="1224.39" y="229.7997">&#1050;&#1086;&#1085;&#1074;&#1077;&#1088;&#1090;&#1072;&#1094;&#1080;&#1103; &#1092;&#1086;&#1088;&#1084;&#1072;&#1090;&#1086;&#1074;</text></g><!--link Shops to Operator--><g class="link" data-entity-1="Shops" data-entity-2="Operator" data-source-line="18" data-uid="lnk15" id="link_Shops_Operator"><path d="M1231.39,43.54 C1231.39,64.33 1231.39,92.92 1231.39,113.81" fill="none" id="Shops-to-Operator" style="stroke:#181818;stroke-width:1;"/><polygon fill="#181818" points="1231.39,119.81,1235.39,110.81,1231.39,114.81,1227.39,110.81,1231.39,119.81" style="stroke:#181818;stroke-width:1;"/><text fill="#000000" font-family="sans-serif" font-size="13" lengthAdjust="spacing" textLength="157.9233" x="1232.39" y="86.3669">&#1048;&#1085;&#1092;&#1086;&#1088;&#1084;&#1072;&#1094;&#1080;&#1103; &#1086; &#1079;&#1072;&#1082;&#1072;&#1079;&#1072;&#1093;</text></g><!--link Dispatcher to System--><g class="link" data-entity-1="Dispatcher" data-entity-2="System" data-source-line="20" data-uid="lnk16" id="link_Dispatcher_System"><path d="M121.31,421.75 C143.1,397 183.1,353.51 202.39,344.89 C262.65,317.99 698.7121,303.9302 865.7321,299.4702" fill="none" id="Dispatcher-to-System" style="stroke:#181818;stroke-width:1;"/><polygon fill="#181818" points="871.73,299.31,862.6264,295.5517,866.7318,299.4435,862.84,303.5488,871.73,299.31" style="stroke:#181818;stroke-width:1;"/><text fill="#000000" font-family="sans-serif" font-size="13" lengthAdjust="spacing" textLength="92.4092" x="231.1991" y="357.9569">&#1050;&#1086;&#1086;&#1088;&#1076;&#1080;&#1085;&#1072;&#1094;&#1080;&#1103;</text><text fill="#000000" font-family="sans-serif" font-size="13" lengthAdjust="spacing" textLength="114.4927" x="220.1573" y="373.0897">&#1055;&#1077;&#1088;&#1077;&#1085;&#1072;&#1079;&#1085;&#1072;&#1095;&#1077;&#1085;&#1080;&#1077;</text><text fill="#000000" font-family="sans-serif" font-size="13" lengthAdjust="spacing" textLength="148.0273" x="203.39" y="388.2225">&#1056;&#1077;&#1096;&#1077;&#1085;&#1080;&#1077; &#1082;&#1086;&#1085;&#1092;&#1083;&#1080;&#1082;&#1090;&#1086;&#1074;</text></g><!--link System to Dispatcher--><g class="link" data-entity-1="System" data-entity-2="Dispatcher" data-source-line="21" data-uid="lnk17" id="link_System_Dispatcher"><path d="M871.95,298.64 C669.4,301.82 49.69,314.04 20.39,344.89 C6,360.04 9.75,373.92 20.39,391.89 C28.55,405.67 36.9564,412.971 51.1064,420.131" fill="none" id="System-to-Dispatcher" style="stroke:#181818;stroke-width:1;"/><polygon fill="#181818" points="56.46,422.84,50.2355,415.2074,51.9986,420.5825,46.6236,422.3456,56.46,422.84" style="stroke:#181818;stroke-width:1;"/><text fill="#000000" font-family="sans-serif" font-size="13" lengthAdjust="spacing" textLength="119.2598" x="21.39" y="357.9569">&#1052;&#1077;&#1089;&#1090;&#1086;&#1087;&#1086;&#1083;&#1086;&#1078;&#1077;&#1085;&#1080;&#1077;</text><text fill="#000000" font-family="sans-serif" font-size="13" lengthAdjust="spacing" textLength="57.2939" x="52.3729" y="373.0897">&#1057;&#1090;&#1072;&#1090;&#1091;&#1089;&#1099;</text><text fill="#000000" font-family="sans-serif" font-size="13" lengthAdjust="spacing" textLength="56.9194" x="52.5602" y="388.2225">&#1048;&#1089;&#1090;&#1086;&#1088;&#1080;&#1103;</text></g><!--link Admin to System--><g class="link" data-entity-1="Admin" data-entity-2="System" data-source-line="23" data-uid="lnk18" id="link_Admin_System"><path d="M1032.36,156.76 C1027.71,179.56 1017.08,220.1 996.39,248.6 C987.98,260.19 980.8413,266.8592 969.6813,274.7392" fill="none" id="Admin-to-System" style="stroke:#181818;stroke-width:1;"/><polygon fill="#181818" points="964.78,278.2,974.4392,276.2764,968.8644,275.316,969.8248,269.7413,964.78,278.2" style="stroke:#181818;stroke-width:1;"/><text fill="#000000" font-family="sans-serif" font-size="13" lengthAdjust="spacing" textLength="154.6289" x="1025.39" y="214.6669">&#1056;&#1077;&#1075;&#1080;&#1089;&#1090;&#1088;&#1072;&#1094;&#1080;&#1103; &#1082;&#1091;&#1088;&#1100;&#1077;&#1088;&#1086;&#1074;</text><text fill="#000000" font-family="sans-serif" font-size="13" lengthAdjust="spacing" textLength="101.5752" x="1051.9169" y="229.7997">&#1055;&#1088;&#1072;&#1074;&#1072; &#1076;&#1086;&#1089;&#1090;&#1091;&#1087;&#1072;</text></g><!--link Courier to System--><g class="link" data-entity-1="Courier" data-entity-2="System" data-source-line="26" data-uid="lnk19" id="link_Courier_System"><path d="M671.59,141.46 C640.52,145.34 597.77,156.26 576.39,186.6 C560.52,209.12 558.22,227.88 576.39,248.6 C595.54,270.42 768.0336,284.8969 865.9036,291.4869" fill="none" id="Courier-to-System" style="stroke:#181818;stroke-width:1;"/><polygon fill="#181818" points="871.89,291.89,863.1791,287.2944,866.9013,291.5541,862.6416,295.2763,871.89,291.89" style="stroke:#181818;stroke-width:1;"/><text fill="#000000" font-family="sans-serif" font-size="13" lengthAdjust="spacing" textLength="215.5728" x="577.39" y="214.6669">&#1055;&#1088;&#1086;&#1089;&#1084;&#1086;&#1090;&#1088;/&#1074;&#1099;&#1073;&#1086;&#1088;/&#1073;&#1088;&#1086;&#1085;&#1080;&#1088;&#1086;&#1074;&#1072;&#1085;&#1080;&#1077;</text><text fill="#000000" font-family="sans-serif" font-size="13" lengthAdjust="spacing" textLength="111.8457" x="629.2535" y="229.7997">&#1055;&#1086;&#1076;&#1090;&#1074;&#1077;&#1088;&#1078;&#1076;&#1077;&#1085;&#1080;&#1077;</text></g><!--link System to Courier--><g class="link" data-entity-1="System" data-entity-2="Courier" data-source-line="27" data-uid="lnk20" id="link_System_Courier"><path d="M877.21,278.15 C860.35,270.98 842.87,261.31 829.39,248.6 C806.84,227.31 819.2,208.64 797.39,186.6 C782.76,171.8 767.9826,163.0174 750.4826,155.2374" fill="none" id="System-to-Courier" style="stroke:#181818;stroke-width:1;"/><polygon fill="#181818" points="745,152.8,751.599,160.1112,749.5688,154.8312,754.8489,152.801,745,152.8" style="stroke:#181818;stroke-width:1;"/><text fill="#000000" font-family="sans-serif" font-size="13" lengthAdjust="spacing" textLength="157.9233" x="830.39" y="199.6669">&#1048;&#1085;&#1092;&#1086;&#1088;&#1084;&#1072;&#1094;&#1080;&#1103; &#1086; &#1079;&#1072;&#1082;&#1072;&#1079;&#1072;&#1093;</text><text fill="#000000" font-family="sans-serif" font-size="13" lengthAdjust="spacing" textLength="65.0825" x="876.8104" y="214.7997">&#1043;&#1072;&#1088;&#1072;&#1085;&#1090;&#1080;&#1080;</text><text fill="#000000" font-family="sans-serif" font-size="13" lengthAdjust="spacing" textLength="50.5464" x="884.0785" y="229.9325">&#1054;&#1087;&#1083;&#1072;&#1090;&#1072;</text><text fill="#000000" font-family="sans-serif" font-size="13" lengthAdjust="spacing" textLength="57.2939" x="880.7047" y="245.0653">&#1057;&#1090;&#1072;&#1090;&#1091;&#1089;&#1099;</text></g><!--link Client to System--><g class="link" data-entity-1="Client" data-entity-2="System" data-source-line="30" data-uid="lnk21" id="link_Client_System"><path d="M502.97,421.49 C514.99,412.77 529.59,401.96 542.39,391.89 C567.93,371.8 568.7,358.1 598.39,344.89 C646.02,323.7 782.1902,309.8123 865.8802,302.9223" fill="none" id="Client-to-System" style="stroke:#181818;stroke-width:1;"/><polygon fill="#181818" points="871.86,302.43,862.5621,299.1819,866.8769,302.8403,863.2185,307.155,871.86,302.43" style="stroke:#181818;stroke-width:1;"/><text fill="#000000" font-family="sans-serif" font-size="13" lengthAdjust="spacing" textLength="138.3218" x="599.39" y="365.4569">&#1054;&#1092;&#1086;&#1088;&#1084;&#1083;&#1077;&#1085;&#1080;&#1077; &#1079;&#1072;&#1082;&#1072;&#1079;&#1072;</text><text fill="#000000" font-family="sans-serif" font-size="13" lengthAdjust="spacing" textLength="107.6626" x="614.7196" y="380.5897">&#1054;&#1073;&#1088;&#1072;&#1090;&#1085;&#1072;&#1103; &#1089;&#1074;&#1103;&#1079;&#1100;</text></g><!--link System to Client--><g class="link" data-entity-1="System" data-entity-2="Client" data-source-line="31" data-uid="lnk22" id="link_System_Client"><path d="M871.84,298.3 C731.09,300.2 402.86,308.52 369.39,344.89 C355.25,360.26 357.92,374.43 369.39,391.89 C385.18,415.93 410.2864,426.4088 435.1864,432.2088" fill="none" id="System-to-Client" style="stroke:#181818;stroke-width:1;"/><polygon fill="#181818" points="441.03,433.57,433.1721,427.6326,436.1604,432.4357,431.3572,435.424,441.03,433.57" style="stroke:#181818;stroke-width:1;"/><text fill="#000000" font-family="sans-serif" font-size="13" lengthAdjust="spacing" textLength="47.0298" x="428.5345" y="357.9569">&#1057;&#1090;&#1072;&#1090;&#1091;&#1089;</text><text fill="#000000" font-family="sans-serif" font-size="13" lengthAdjust="spacing" textLength="163.3188" x="370.39" y="373.0897">&#1048;&#1085;&#1092;&#1086;&#1088;&#1084;&#1072;&#1094;&#1080;&#1103; &#1086; &#1074;&#1088;&#1077;&#1084;&#1077;&#1085;&#1080;</text><text fill="#000000" font-family="sans-serif" font-size="13" lengthAdjust="spacing" textLength="111.8457" x="396.1266" y="388.2225">&#1055;&#1086;&#1076;&#1090;&#1074;&#1077;&#1088;&#1078;&#1076;&#1077;&#1085;&#1080;&#1077;</text></g><!--link Owner to System--><g class="link" data-entity-1="Owner" data-entity-2="System" data-source-line="33" data-uid="lnk23" id="link_Owner_System"><path d="M869.44,421.8 C878.61,413.49 888.94,402.93 896.39,391.89 C912.91,367.4 922.722,340.5367 928.762,320.8267" fill="none" id="Owner-to-System" style="stroke:#181818;stroke-width:1;"/><polygon fill="#181818" points="930.52,315.09,924.0586,322.523,929.055,319.8706,931.7075,324.867,930.52,315.09" style="stroke:#181818;stroke-width:1;"/><text fill="#000000" font-family="sans-serif" font-size="13" lengthAdjust="spacing" textLength="140.9497" x="921.39" y="372.9569">&#1047;&#1072;&#1087;&#1088;&#1086;&#1089;&#1099; &#1086;&#1090;&#1095;&#1077;&#1090;&#1085;&#1086;&#1089;&#1090;&#1080;</text></g><!--link System to Owner--><g class="link" data-entity-1="System" data-entity-2="Owner" data-source-line="34" data-uid="lnk24" id="link_System_Owner"><path d="M871.88,305.99 C825.72,313.44 768.89,326.14 754.39,344.89 C741.62,361.42 743.42,374.12 754.39,391.89 C764.94,408.98 778.1975,417.891 796.2475,425.001" fill="none" id="System-to-Owner" style="stroke:#181818;stroke-width:1;"/><polygon fill="#181818" points="801.83,427.2,794.9222,420.1798,797.1779,425.3675,791.9902,427.6232,801.83,427.2" style="stroke:#181818;stroke-width:1;"/><text fill="#000000" font-family="sans-serif" font-size="13" lengthAdjust="spacing" textLength="79.8916" x="781.4916" y="365.4569">&#1054;&#1090;&#1095;&#1077;&#1090;&#1085;&#1086;&#1089;&#1090;&#1100;</text><text fill="#000000" font-family="sans-serif" font-size="13" lengthAdjust="spacing" textLength="132.0947" x="755.39" y="380.5897">&#1041;&#1080;&#1079;&#1085;&#1077;&#1089;-&#1087;&#1086;&#1082;&#1072;&#1079;&#1072;&#1090;&#1077;&#1083;&#1080;</text></g><!--link System to Accounting--><g class="link" data-entity-1="System" data-entity-2="Accounting" data-source-line="37" data-uid="lnk25" id="link_System_Accounting"><path d="M998.77,312.97 C1022.42,320.38 1048.75,330.8 1070.39,344.89 C1094.37,360.51 1091.05,375.34 1114.39,391.89 C1131.36,403.93 1146.3513,411.597 1164.8713,419.217" fill="none" id="System-to-Accounting" style="stroke:#181818;stroke-width:1;"/><polygon fill="#181818" points="1170.42,421.5,1163.619,414.3764,1165.7961,419.5975,1160.575,421.7746,1170.42,421.5" style="stroke:#181818;stroke-width:1;"/><text fill="#000000" font-family="sans-serif" font-size="13" lengthAdjust="spacing" textLength="122.8716" x="1137.8512" y="365.4569">&#1044;&#1072;&#1085;&#1085;&#1099;&#1077; &#1086; &#1079;&#1072;&#1082;&#1072;&#1079;&#1072;&#1093;</text><text fill="#000000" font-family="sans-serif" font-size="13" lengthAdjust="spacing" textLength="167.7939" x="1115.39" y="380.5897">&#1048;&#1085;&#1092;&#1086;&#1088;&#1084;&#1072;&#1094;&#1080;&#1103; &#1086; &#1076;&#1086;&#1089;&#1090;&#1072;&#1074;&#1082;&#1077;</text></g><!--link Accounting to System--><g class="link" data-entity-1="Accounting" data-entity-2="System" data-source-line="38" data-uid="lnk26" id="link_Accounting_System"><path d="M1258.22,421.58 C1269.7,414.15 1281.01,404.29 1287.39,391.89 C1296.95,373.32 1301.15,360.61 1287.39,344.89 C1268.71,323.55 1101.0252,308.9505 1004.8152,302.1905" fill="none" id="Accounting-to-System" style="stroke:#181818;stroke-width:1;"/><polygon fill="#181818" points="998.83,301.77,1007.5275,306.391,1003.8177,302.1205,1008.0882,298.4106,998.83,301.77" style="stroke:#181818;stroke-width:1;"/><text fill="#000000" font-family="sans-serif" font-size="13" lengthAdjust="spacing" textLength="173.4497" x="1296.39" y="365.4569">&#1056;&#1072;&#1089;&#1095;&#1077;&#1090;&#1099; &#1089; &#1087;&#1086;&#1089;&#1090;&#1072;&#1074;&#1097;&#1080;&#1082;&#1072;&#1084;&#1080;</text><text fill="#000000" font-family="sans-serif" font-size="13" lengthAdjust="spacing" textLength="104.876" x="1330.6769" y="380.5897">&#1044;&#1072;&#1085;&#1085;&#1099;&#1077; &#1076;&#1083;&#1103; &#1047;&#1055;</text></g><!--link System to Payments--><g class="link" data-entity-1="System" data-entity-2="Payments" data-source-line="40" data-uid="lnk27" id="link_System_Payments"><path d="M998.89,300.19 C1133.38,305.79 1437.94,320.98 1478.39,344.89 C1507.85,362.31 1524.139,393.9702 1532.979,416.0402" fill="none" id="System-to-Payments" style="stroke:#181818;stroke-width:1;"/><polygon fill="#181818" points="1535.21,421.61,1535.5768,411.768,1533.3509,416.9685,1528.1504,414.7426,1535.21,421.61" style="stroke:#181818;stroke-width:1;"/><text fill="#000000" font-family="sans-serif" font-size="13" lengthAdjust="spacing" textLength="231.4355" x="1521.39" y="372.9569">&#1044;&#1072;&#1085;&#1085;&#1099;&#1077; &#1076;&#1083;&#1103; &#1086;&#1073;&#1088;&#1072;&#1073;&#1086;&#1090;&#1082;&#1080; &#1087;&#1083;&#1072;&#1090;&#1077;&#1078;&#1077;&#1081;</text></g><!--link System to Sanitation--><g class="link" data-entity-1="System" data-entity-2="Sanitation" data-source-line="41" data-uid="lnk28" id="link_System_Sanitation"><path d="M998.96,297.9 C1181.34,298.81 1697.32,304.95 1761.39,344.89 C1789.08,362.16 1801.938,393.6906 1808.398,415.8106" fill="none" id="System-to-Sanitation" style="stroke:#181818;stroke-width:1;"/><polygon fill="#181818" points="1810.08,421.57,1811.3966,411.8095,1808.6783,416.7705,1803.7174,414.0522,1810.08,421.57" style="stroke:#181818;stroke-width:1;"/><text fill="#000000" font-family="sans-serif" font-size="13" lengthAdjust="spacing" textLength="242.2012" x="1799.39" y="372.9569">&#1044;&#1072;&#1085;&#1085;&#1099;&#1077; &#1076;&#1083;&#1103; &#1089;&#1072;&#1085;&#1080;&#1090;&#1072;&#1088;&#1085;&#1086;&#1075;&#1086; &#1082;&#1086;&#1085;&#1090;&#1088;&#1086;&#1083;&#1103;</text></g><!--link System to Regulators--><g class="link" data-entity-1="System" data-entity-2="Regulators" data-source-line="42" data-uid="lnk29" id="link_System_Regulators"><path d="M998.86,298.67 C1228.65,302.23 2005.96,316.37 2050.39,344.89 C2077.25,362.14 2088.3794,393.6034 2093.6494,415.7234" fill="none" id="System-to-Regulators" style="stroke:#181818;stroke-width:1;"/><polygon fill="#181818" points="2095.04,421.56,2096.8453,411.878,2093.8812,416.6961,2089.0631,413.7321,2095.04,421.56" style="stroke:#181818;stroke-width:1;"/><text fill="#000000" font-family="sans-serif" font-size="13" lengthAdjust="spacing" textLength="287.5615" x="2086.39" y="372.9569">&#1048;&#1085;&#1092;&#1086;&#1088;&#1084;&#1072;&#1094;&#1080;&#1103; &#1076;&#1083;&#1103; &#1085;&#1086;&#1088;&#1084;&#1072;&#1090;&#1080;&#1074;&#1085;&#1086;&#1075;&#1086; &#1082;&#1086;&#1085;&#1090;&#1088;&#1086;&#1083;&#1103;</text></g><!--SRC=[ZLLDJnDX4BxlhtZ3nLF3tOE9aJj6hrwQsa0Js99sYU7MBWAQOWg8IX1QCF7CKbgwj6Nx5-RzHpupxtwykrBZOTElcMUUUUQPQQDQyShksaPLBT6vtjKjVKWZtLfIvQPwLTzkrAeDfs75d5AespH7ZAyFqiYLMdEhx5NM2y57DAGPXVJ8IKXeKQ1zYkAab-ytQsuklYV0-QZLhMgZxDNpm1SKq1sUCOFhZWI-NQzlDPrSs3MTuVb5tv1mf5PMLqtWJjEhRkOZpsaAg170VDFwHgtgUhcG4uG4Q6Y4rv7UD-G-k8MMZw7Xdd2ReWbk9jHTqswbKjzslPgxbaleCoo7qZrq2dHNGL-H2r_DA93Sr-MTJV1f5heBmFSBD0j1wr78ZLFTtfRTcbVsQlMyn5T0lTExODSr8iVglQckRM-mpf3mcQAVqEm4yxjH8c0FUJswX8WbHL4wfNrKZb0P8w07PRu6-qZ8J9raTAfKUX6hhfuhu0uGCbGW6z14fXZHu9sB8N3cG51y0yzoV6IQB0KJfe4ZWnRCj01Gpy0YYpIf5Db50htdE9bJ2wouE6SFnQyn0aZrfTUHj3IMNmxa4zo2No6d_fHyLYWK2GqsqoIXQqfmDQiuAbuWjor1SpnJFFSMyhL8uCDERTt1vpCJQmpbEB8yXHPajjQgnI9CihMEXUxppn0wK6WtalXTa0Xaz2SO_HNznhHldXo_1UV45wB0W-61Ya54p6IP1l37BNDVfbiXmGT1oB25uuRxR0gqAFE75CD435l1fE3_3XouN_7QabNnWHRY6pupPkc2ej2YG1_j7Ysq_oGx5Of21Rwvk-2Oqr6Gf9TIdMPkiPWAgzluzALdOA2xDDQ7EG4CEY0jtcoF1MeCnBmpK_IVAZjop0gyVu3Ut8nJTvJCawy-SnJVK6YJCmZIRY5E7wBsCUhm2i7s9V5yCYPVn0j5_4kqydsX-UOyJ87b8z7X0KY3XPDcayhkBZCx5SVnmHezwPP5EiPx8cipWLeMQd490mHAy-2dsymvJTMV-J3WtKo6aICpv0POyRvZqqzE_r_au_Z8s4RsomTsg59tZ-IWFDXesR_20ZouJbPIpDNYyU6aHCbbysLh4MTZPdyT2zSovlfeNV8GGYv2_mC0]--></g></svg>